<svg version="1.1" id="Layer_1" xmlns="http://www.w3.org/2000/svg" xmlns:xlink="http://www.w3.org/1999/xlink" x="0px" y="0px"
	 width="100%" viewBox="0 0 387 497" enable-background="new 0 0 387 497" xml:space="preserve">
<path fill="#B9A068" opacity="1.000000" stroke="none" 
	d="
M234.000000,1.000002 
	C234.444443,1.000000 234.888901,1.000000 235.861572,1.304101 
	C240.926529,1.405468 245.463272,1.202734 250.000000,1.000000 
	C266.020905,1.000000 282.041779,1.000000 298.463257,1.406149 
	C299.544250,2.204219 300.222748,2.933142 300.905457,2.937074 
	C309.888123,2.988816 318.872131,2.982221 327.853119,2.830943 
	C328.578827,2.818720 329.284851,1.637831 330.000000,1.000002 
	C336.354401,1.000000 342.708801,1.000000 349.593262,1.397707 
	C354.777649,2.214312 359.426880,2.758001 364.090485,2.947658 
	C365.032379,2.985962 366.028748,1.684029 367.000000,0.999997 
	C372.688049,1.000000 378.376068,1.000000 384.192017,1.364143 
	C384.535156,13.840981 384.843048,25.953344 384.886414,38.066654 
	C384.894958,40.450706 384.354889,43.084377 383.261444,45.182693 
	C377.970123,55.336491 379.294769,66.347862 380.800903,76.611237 
	C382.300293,86.828262 385.098633,96.830750 385.168121,107.326508 
	C385.187286,110.223785 387.006653,113.109154 388.000000,116.000000 
	C388.000000,120.356903 388.000000,124.713806 387.614136,129.533203 
	C386.837738,131.585754 386.225372,133.158035 386.096161,134.769058 
	C385.604401,140.900757 385.815369,147.141464 384.752563,153.162949 
	C382.945648,163.399857 381.531219,172.984009 384.271759,183.812302 
	C386.922424,194.285431 385.233246,206.003586 384.576782,217.123322 
	C383.990265,227.058273 379.707855,236.887100 384.619263,246.860489 
	C385.293549,248.229797 384.944641,250.138702 384.946442,251.797913 
	C384.964905,268.792023 385.024109,285.786591 384.902832,302.779846 
	C384.878204,306.230499 384.470947,309.752808 383.678345,313.109436 
	C381.467438,322.472443 380.376343,331.710022 384.512207,340.871307 
	C385.040436,342.041443 385.192413,343.469757 385.187775,344.777252 
	C385.163757,351.541016 385.101318,358.306274 384.921509,365.067535 
	C384.658722,374.946869 384.095551,384.821930 384.025360,394.701416 
	C383.979492,401.157166 384.569550,407.617981 384.892761,414.075653 
	C385.639984,429.003021 378.703156,443.578674 382.833923,458.668915 
	C382.893555,458.886780 382.550598,459.214783 382.263519,459.726837 
	C378.271942,459.658600 376.127441,461.116760 378.283417,465.733551 
	C380.285217,464.749054 382.087982,463.862396 385.360779,462.252808 
	C384.740082,466.422119 384.327454,469.193756 383.760376,471.952972 
	C383.605865,471.940552 383.296509,471.960114 383.077209,471.702911 
	C381.855194,471.189575 380.522583,470.386414 379.900604,470.761536 
	C373.369080,474.700623 366.939819,478.810242 360.504944,482.908386 
	C353.351898,487.463898 347.169678,494.125061 337.495728,493.138550 
	C336.318451,493.018494 335.044556,494.365173 333.787292,494.423309 
	C327.260834,494.725128 320.162964,496.557373 314.306976,494.651764 
	C301.106171,490.356049 288.594940,483.982788 275.641663,478.863403 
	C270.788300,476.945251 265.625702,477.693726 260.590698,479.592438 
	C261.469727,482.564667 262.193176,485.010742 263.009705,487.771545 
	C257.323120,487.738403 252.865936,489.135651 249.889114,494.045746 
	C249.169189,495.233307 246.598511,495.995728 244.994217,495.830872 
	C237.618530,495.073059 230.241745,494.151947 222.944672,492.846130 
	C213.545486,491.164154 204.777740,491.888763 197.000000,498.000000 
	C194.958328,498.000000 192.916672,498.000000 190.405151,497.614685 
	C188.317001,496.872437 186.714310,496.323181 185.077789,496.190277 
	C175.467285,495.409851 165.855270,494.620117 156.231232,494.042572 
	C147.863159,493.540405 139.480209,493.107117 131.100571,493.037628 
	C125.146919,492.988190 119.167152,494.072968 113.235107,493.816711 
	C96.517441,493.094421 79.827301,491.680328 63.106827,491.109161 
	C57.740929,490.925873 53.286232,489.718109 49.660065,485.938599 
	C47.091930,483.261871 44.350361,482.751221 41.151108,484.393890 
	C31.549978,489.323639 21.173374,489.098785 10.804991,489.166534 
	C9.571155,489.174561 8.345097,490.373566 6.803006,491.006958 
	C6.073903,490.985626 5.657228,490.977844 5.176813,490.579407 
	C5.114678,488.872162 5.116283,487.555511 5.369691,486.003357 
	C5.164588,481.561066 4.160767,477.329041 4.353393,473.152252 
	C4.929677,460.656494 6.230477,448.321014 4.476026,435.663971 
	C2.788394,423.489014 3.000755,410.968994 3.283104,398.621246 
	C3.737703,378.740570 1.945532,358.866669 4.804181,338.933350 
	C6.181510,329.329285 3.484213,319.198639 3.250956,309.291901 
	C2.922111,295.325378 3.095545,281.344879 3.198816,267.371399 
	C3.248863,260.599548 3.627872,253.830170 3.907618,246.665314 
	C3.737555,245.525192 3.517822,244.779465 3.271327,243.564484 
	C3.215985,233.184158 3.256501,223.271729 3.064180,213.363815 
	C3.042176,212.230225 4.820435,209.129532 1.000000,210.000000 
	C1.000000,208.611115 1.000000,207.222214 1.269634,205.800903 
	C2.080590,204.233917 3.067181,202.706146 3.090592,201.163742 
	C3.236790,191.531769 3.045364,181.893723 3.265388,172.264542 
	C3.313816,170.145096 4.569613,168.053253 5.438223,165.845840 
	C5.607023,165.742981 5.813153,165.405945 6.089360,165.271347 
	C11.727184,157.661667 7.420687,151.254807 4.049724,144.422058 
	C3.760989,143.748367 3.534226,143.390366 3.277629,142.563293 
	C3.221154,108.841492 3.192094,75.588776 3.169211,42.336060 
	C3.161413,31.003937 3.364415,19.666864 3.077951,8.341996 
	C2.955806,3.513213 4.604121,2.029111 9.378845,2.079489 
	C29.541121,2.292219 49.758369,1.338112 69.845963,2.581120 
	C77.800613,3.073348 85.248878,4.370686 93.341766,2.475399 
	C99.746223,0.975529 106.782356,2.104720 113.536720,2.179700 
	C135.501495,2.423531 157.465042,2.816012 179.430328,2.964149 
	C196.531097,3.079479 213.634079,2.949739 230.734879,2.795578 
	C231.828552,2.785719 232.911865,1.625224 234.000000,1.000002 
z"/>
<path fill="#3F2C1E" opacity="1.000000" stroke="none" 
	d="
M383.914856,471.965393 
	C384.327454,469.193756 384.740082,466.422119 385.360779,462.252808 
	C382.087982,463.862396 380.285217,464.749054 378.283417,465.733551 
	C376.127441,461.116760 378.271942,459.658600 382.263519,459.726837 
	C382.550598,459.214783 382.893555,458.886780 382.833923,458.668915 
	C378.703156,443.578674 385.639984,429.003021 384.892761,414.075653 
	C384.569550,407.617981 383.979492,401.157166 384.025360,394.701416 
	C384.095551,384.821930 384.658722,374.946869 384.921509,365.067535 
	C385.101318,358.306274 385.163757,351.541016 385.187775,344.777252 
	C385.192413,343.469757 385.040436,342.041443 384.512207,340.871307 
	C380.376343,331.710022 381.467438,322.472443 383.678345,313.109436 
	C384.470947,309.752808 384.878204,306.230499 384.902832,302.779846 
	C385.024109,285.786591 384.964905,268.792023 384.946442,251.797913 
	C384.944641,250.138702 385.293549,248.229797 384.619263,246.860489 
	C379.707855,236.887100 383.990265,227.058273 384.576782,217.123322 
	C385.233246,206.003586 386.922424,194.285431 384.271759,183.812302 
	C381.531219,172.984009 382.945648,163.399857 384.752563,153.162949 
	C385.815369,147.141464 385.604401,140.900757 386.096161,134.769058 
	C386.225372,133.158035 386.837738,131.585754 387.614136,129.997833 
	C388.000000,251.687561 388.000000,373.375122 387.611938,495.552246 
	C384.427673,495.373169 381.663300,494.400024 378.828125,494.103149 
	C373.862671,493.583252 368.841034,493.617279 363.866730,493.160126 
	C358.993652,492.712341 354.644867,493.163727 352.000000,498.000000 
	C300.645782,498.000000 249.291550,498.000000 197.468658,498.000000 
	C204.777740,491.888763 213.545486,491.164154 222.944672,492.846130 
	C230.241745,494.151947 237.618530,495.073059 244.994217,495.830872 
	C246.598511,495.995728 249.169189,495.233307 249.889114,494.045746 
	C252.865936,489.135651 257.323120,487.738403 263.009705,487.771545 
	C262.193176,485.010742 261.469727,482.564667 260.590698,479.592438 
	C265.625702,477.693726 270.788300,476.945251 275.641663,478.863403 
	C288.594940,483.982788 301.106171,490.356049 314.306976,494.651764 
	C320.162964,496.557373 327.260834,494.725128 333.787292,494.423309 
	C335.044556,494.365173 336.318451,493.018494 337.495728,493.138550 
	C347.169678,494.125061 353.351898,487.463898 360.504944,482.908386 
	C366.939819,478.810242 373.369080,474.700623 379.900604,470.761536 
	C380.522583,470.386414 381.855194,471.189575 383.006104,472.070740 
	C382.112183,474.104706 381.351868,475.942627 379.977325,476.845612 
	C375.019623,480.102325 369.860138,483.052734 364.764587,486.098145 
	C363.695953,486.736847 362.574615,487.287384 361.046814,488.110657 
	C369.424164,492.904541 376.355347,490.111633 383.058014,489.239502 
	C383.344879,483.456238 383.629883,477.710815 383.914856,471.965393 
M281.616394,489.977264 
	C274.023773,487.951965 267.273834,490.464447 259.413147,493.942413 
	C271.662079,497.143341 282.145233,492.186554 292.957336,492.755005 
	C292.981689,492.221588 293.006012,491.688141 293.030365,491.154694 
	C289.530579,490.763062 286.030823,490.371429 281.616394,489.977264 
z"/>
<path fill="#3F2C1E" opacity="1.000000" stroke="none" 
	d="
M7.115434,491.020538 
	C8.345097,490.373566 9.571155,489.174561 10.804991,489.166534 
	C21.173374,489.098785 31.549978,489.323639 41.151108,484.393890 
	C44.350361,482.751221 47.091930,483.261871 49.660065,485.938599 
	C53.286232,489.718109 57.740929,490.925873 63.106827,491.109161 
	C79.827301,491.680328 96.517441,493.094421 113.235107,493.816711 
	C119.167152,494.072968 125.146919,492.988190 131.100571,493.037628 
	C139.480209,493.107117 147.863159,493.540405 156.231232,494.042572 
	C165.855270,494.620117 175.467285,495.409851 185.077789,496.190277 
	C186.714310,496.323181 188.317001,496.872437 189.967651,497.614685 
	C142.312439,498.000000 94.624878,498.000000 46.534416,497.614960 
	C41.080753,492.030914 34.118896,490.976379 28.136635,492.560211 
	C22.590317,494.028625 17.726658,492.945160 12.576556,492.603149 
	C10.729295,492.480499 8.934289,491.570953 7.115434,491.020538 
z"/>
<path fill="#4B3826" opacity="1.000000" stroke="none" 
	d="
M233.531342,1.000002 
	C232.911865,1.625224 231.828552,2.785719 230.734879,2.795578 
	C213.634079,2.949739 196.531097,3.079479 179.430328,2.964149 
	C157.465042,2.816012 135.501495,2.423531 113.536720,2.179700 
	C106.782356,2.104720 99.746223,0.975529 93.341766,2.475399 
	C85.248878,4.370686 77.800613,3.073348 69.845963,2.581120 
	C49.758369,1.338112 29.541121,2.292219 9.378845,2.079489 
	C4.604121,2.029111 2.955806,3.513213 3.077951,8.341996 
	C3.364415,19.666864 3.161413,31.003937 3.169211,42.336060 
	C3.192094,75.588776 3.221154,108.841492 2.989633,142.557587 
	C2.154314,143.013962 1.577157,143.006989 1.000000,143.000000 
	C1.000000,117.312439 1.000000,91.624878 1.330848,65.274071 
	C3.475946,59.320969 4.562042,54.061974 1.000000,49.000000 
	C1.000000,33.645771 1.000000,18.291544 1.184418,2.320393 
	C1.604114,1.491313 1.814502,1.256823 2.000000,1.000000 
	C79.020897,1.000000 156.041794,1.000000 233.531342,1.000002 
z"/>
<path fill="#4B3826" opacity="1.000000" stroke="none" 
	d="
M3.857949,247.059677 
	C3.627872,253.830170 3.248863,260.599548 3.198816,267.371399 
	C3.095545,281.344879 2.922111,295.325378 3.250956,309.291901 
	C3.484213,319.198639 6.181510,329.329285 4.804181,338.933350 
	C1.945532,358.866669 3.737703,378.740570 3.283104,398.621246 
	C3.000755,410.968994 2.788394,423.489014 4.476026,435.663971 
	C6.230477,448.321014 4.929677,460.656494 4.353393,473.152252 
	C4.160767,477.329041 5.164588,481.561066 5.343568,485.558960 
	C4.659214,479.962036 3.908028,474.572693 3.927083,469.186096 
	C3.955734,461.087341 4.878439,452.985077 4.755464,444.894440 
	C4.647935,437.820068 3.717388,430.748962 2.930247,423.701050 
	C2.749462,422.082367 1.667322,420.564331 0.999998,419.000000 
	C1.000000,417.611115 1.000000,416.222198 1.317387,414.240356 
	C3.535321,410.922913 4.014799,408.316437 1.000000,406.000000 
	C1.000000,386.312439 1.000000,366.624878 1.321350,346.301300 
	C5.653290,338.694611 4.208889,331.381989 2.880333,324.116150 
	C2.735250,323.322693 1.649468,322.701233 1.000003,322.000000 
	C1.000000,299.312439 1.000000,276.624878 1.303672,253.314240 
	C2.357546,250.813995 3.107749,248.936829 3.857949,247.059677 
z"/>
<path fill="#3D2B1D" opacity="1.000000" stroke="none" 
	d="
M388.000000,115.531342 
	C387.006653,113.109154 385.187286,110.223785 385.168121,107.326508 
	C385.098633,96.830750 382.300293,86.828262 380.800903,76.611237 
	C379.294769,66.347862 377.970123,55.336491 383.261444,45.182693 
	C384.354889,43.084377 384.894958,40.450706 384.886414,38.066654 
	C384.843048,25.953344 384.535156,13.840981 384.659973,1.364143 
	C385.996277,1.000000 386.992554,1.000000 387.994415,1.000000 
	C388.000000,39.020893 388.000000,77.041786 388.000000,115.531342 
z"/>
<path fill="#402E1F" opacity="1.000000" stroke="none" 
	d="
M0.999998,419.468658 
	C1.667322,420.564331 2.749462,422.082367 2.930247,423.701050 
	C3.717388,430.748962 4.647935,437.820068 4.755464,444.894440 
	C4.878439,452.985077 3.955734,461.087341 3.927083,469.186096 
	C3.908028,474.572693 4.659214,479.962036 5.091766,485.794495 
	C5.116283,487.555511 5.114678,488.872162 5.091785,491.012085 
	C5.046999,493.890259 5.023499,495.945129 5.000000,498.000000 
	C3.673734,498.000000 2.347469,498.000000 1.000000,498.000000 
	C1.000000,471.979095 1.000000,445.958221 0.999998,419.468658 
z"/>
<path fill="#AD9561" opacity="1.000000" stroke="none" 
	d="
M5.468657,498.000000 
	C5.023499,495.945129 5.046999,493.890259 5.155526,491.402710 
	C5.657228,490.977844 6.073903,490.985626 6.803006,491.006958 
	C8.934289,491.570953 10.729295,492.480499 12.576556,492.603149 
	C17.726658,492.945160 22.590317,494.028625 28.136635,492.560211 
	C34.118896,490.976379 41.080753,492.030914 46.065758,497.614960 
	C32.645771,498.000000 19.291542,498.000000 5.468657,498.000000 
z"/>
<path fill="#8E7C58" opacity="1.000000" stroke="none" 
	d="
M352.468658,498.000000 
	C354.644867,493.163727 358.993652,492.712341 363.866730,493.160126 
	C368.841034,493.617279 373.862671,493.583252 378.828125,494.103149 
	C381.663300,494.400024 384.427673,495.373169 387.611938,496.020935 
	C388.611908,498.413879 386.894623,497.996368 385.552490,497.997009 
	C374.680756,498.002350 363.809052,498.000000 352.468658,498.000000 
z"/>
<path fill="#4B3826" opacity="1.000000" stroke="none" 
	d="
M5.269423,165.948700 
	C4.569613,168.053253 3.313816,170.145096 3.265388,172.264542 
	C3.045364,181.893723 3.236790,191.531769 3.090592,201.163742 
	C3.067181,202.706146 2.080590,204.233917 1.269634,205.384232 
	C1.000000,192.645767 1.000000,180.291550 1.313231,167.411957 
	C2.840782,166.573959 4.055103,166.261337 5.269423,165.948700 
z"/>
<path fill="#4B3826" opacity="1.000000" stroke="none" 
	d="
M1.000000,210.468658 
	C4.820435,209.129532 3.042176,212.230225 3.064180,213.363815 
	C3.256501,223.271729 3.215985,233.184158 2.984233,243.559357 
	C2.149266,244.015656 1.574633,244.007828 1.000000,244.000000 
	C1.000000,232.979111 1.000000,221.958206 1.000000,210.468658 
z"/>
<path fill="#422F20" opacity="1.000000" stroke="none" 
	d="
M329.531342,1.000002 
	C329.284851,1.637831 328.578827,2.818720 327.853119,2.830943 
	C318.872131,2.982221 309.888123,2.988816 300.905457,2.937074 
	C300.222748,2.933142 299.544250,2.204219 298.931885,1.406149 
	C309.020905,1.000000 319.041779,1.000000 329.531342,1.000002 
z"/>
<path fill="#402E1F" opacity="1.000000" stroke="none" 
	d="
M1.000003,322.468628 
	C1.649468,322.701233 2.735250,323.322693 2.880333,324.116150 
	C4.208889,331.381989 5.653290,338.694611 1.321350,345.832642 
	C1.000000,338.312408 1.000000,330.624847 1.000003,322.468628 
z"/>
<path fill="#877958" opacity="1.000000" stroke="none" 
	d="
M1.000000,158.000000 
	C1.000000,155.299377 1.000000,152.598740 1.370613,149.527039 
	C2.495111,149.093231 3.248997,149.030518 4.114790,149.343781 
	C4.485878,153.449265 4.745059,157.178726 4.848945,160.617859 
	C3.462433,159.551682 2.231216,158.775848 1.000000,158.000000 
z"/>
<path fill="#402E1F" opacity="1.000000" stroke="none" 
	d="
M1.000000,158.449982 
	C2.231216,158.775848 3.462433,159.551682 4.997811,160.847610 
	C5.472367,162.713776 5.642760,164.059860 5.813153,165.405945 
	C5.813153,165.405945 5.607023,165.742981 5.438223,165.845840 
	C4.055103,166.261337 2.840782,166.573959 1.313231,166.943298 
	C1.000000,164.299988 1.000000,161.599976 1.000000,158.449982 
z"/>
<path fill="#4B3826" opacity="1.000000" stroke="none" 
	d="
M366.532410,0.999997 
	C366.028748,1.684029 365.032379,2.985962 364.090485,2.947658 
	C359.426880,2.758001 354.777649,2.214312 350.061676,1.397707 
	C355.354919,1.000000 360.709869,1.000000 366.532410,0.999997 
z"/>
<path fill="#422F20" opacity="1.000000" stroke="none" 
	d="
M1.000000,49.466862 
	C4.562042,54.061974 3.475946,59.320969 1.330848,64.805412 
	C1.000000,59.977909 1.000000,54.955814 1.000000,49.466862 
z"/>
<path fill="#4B3826" opacity="1.000000" stroke="none" 
	d="
M249.535355,1.000000 
	C245.463272,1.202734 240.926529,1.405468 236.194901,1.304101 
	C240.356903,1.000000 244.713806,1.000000 249.535355,1.000000 
z"/>
<path fill="#402E1F" opacity="1.000000" stroke="none" 
	d="
M1.000000,244.449982 
	C1.574633,244.007828 2.149266,244.015656 3.010994,244.028595 
	C3.517822,244.779465 3.737555,245.525192 3.907619,246.665314 
	C3.107749,248.936829 2.357546,250.813995 1.303672,252.845581 
	C1.000000,250.299988 1.000000,247.599976 1.000000,244.449982 
z"/>
<path fill="#422F20" opacity="1.000000" stroke="none" 
	d="
M4.002882,148.967789 
	C3.248997,149.030518 2.495111,149.093231 1.370613,149.077972 
	C1.000000,147.285843 1.000000,145.571671 1.000000,143.428757 
	C1.577157,143.006989 2.154314,143.013962 3.019467,143.026657 
	C3.534226,143.390366 3.760989,143.748367 4.026387,144.845367 
	C4.044309,146.712158 4.023595,147.839981 4.002882,148.967789 
z"/>
<path fill="#402E1F" opacity="1.000000" stroke="none" 
	d="
M1.000000,406.444153 
	C4.014799,408.316437 3.535321,410.922913 1.317387,413.823669 
	C1.000000,411.629425 1.000000,409.258881 1.000000,406.444153 
z"/>
<path fill="#422F20" opacity="1.000000" stroke="none" 
	d="
M1.500000,1.000000 
	C1.814502,1.256823 1.604114,1.491313 1.184418,1.851736 
	C1.000000,1.666667 1.000000,1.333333 1.500000,1.000000 
z"/>
<path fill="#AD9561" opacity="1.000000" stroke="none" 
	d="
M383.760376,471.952972 
	C383.629883,477.710815 383.344879,483.456238 383.058014,489.239502 
	C376.355347,490.111633 369.424164,492.904541 361.046814,488.110657 
	C362.574615,487.287384 363.695953,486.736847 364.764587,486.098145 
	C369.860138,483.052734 375.019623,480.102325 379.977325,476.845612 
	C381.351868,475.942627 382.112183,474.104706 383.225403,472.327942 
	C383.296509,471.960114 383.605865,471.940552 383.760376,471.952972 
z"/>
<path fill="#4B3826" opacity="1.000000" stroke="none" 
	d="
M4.114790,149.343781 
	C4.023595,147.839981 4.044309,146.712158 4.088358,145.161041 
	C7.420687,151.254807 11.727184,157.661667 6.089360,165.271347 
	C5.642760,164.059860 5.472367,162.713776 5.153107,161.137939 
	C4.745059,157.178726 4.485878,153.449265 4.114790,149.343781 
z"/>
<path fill="#877958" opacity="1.000000" stroke="none" 
	d="
M282.073730,489.978546 
	C286.030823,490.371429 289.530579,490.763062 293.030365,491.154694 
	C293.006012,491.688141 292.981689,492.221588 292.957336,492.755005 
	C282.145233,492.186554 271.662079,497.143341 259.413147,493.942413 
	C267.273834,490.464447 274.023773,487.951965 282.073730,489.978546 
z"/>
</svg>