<svg version="1.1" id="Layer_1" xmlns="http://www.w3.org/2000/svg" xmlns:xlink="http://www.w3.org/1999/xlink" x="0px" y="0px"
	 width="100%" viewBox="0 0 890 673" enable-background="new 0 0 890 673" xml:space="preserve">
<path fill="transparent" opacity="1.000000" stroke="none"
	d="
M891.000000,240.000000 
	C891.000000,385.000000 891.000000,529.500000 891.000000,674.000000 
	C594.333313,674.000000 297.666656,674.000000 1.000000,674.000000 
	C1.000000,449.666656 1.000000,225.333328 1.000000,1.000000 
	C297.666656,1.000000 594.333313,1.000000 891.000000,1.000000 
	C891.000000,80.500000 891.000000,160.000000 891.000000,240.000000 
M562.500000,666.000000 
	C669.921448,666.000000 777.342957,666.000000 884.696899,666.000000 
	C884.696899,446.011169 884.696899,226.618790 884.696899,7.000334 
	C876.583069,7.000334 868.770020,6.963787 860.958252,7.046708 
	C859.984314,7.057046 858.984131,7.630002 858.054871,8.067157 
	C856.822144,8.647099 855.641968,9.925768 854.448242,9.914885 
	C830.358582,9.695243 806.269470,9.375880 782.181763,8.985196 
	C766.591370,8.732331 751.004517,8.244746 735.413757,8.029878 
	C724.249817,7.876018 713.059204,8.431625 701.924438,7.840763 
	C695.038147,7.475340 688.107666,4.945527 683.551025,12.014021 
	C681.250916,10.844745 679.466431,9.202092 677.618347,9.127046 
	C670.131104,8.823006 661.860413,7.016835 655.328735,9.531299 
	C648.067505,12.326595 641.961609,10.288957 635.290283,10.078123 
	C625.633789,9.772953 615.958557,10.115487 606.295044,9.956469 
	C600.542297,9.861804 594.783813,9.477403 589.051514,8.961416 
	C583.865906,8.494641 578.444153,6.319302 573.598572,7.279519 
	C562.408447,9.497001 550.059570,7.675554 541.180359,15.897173 
	C538.080811,12.945153 535.823120,9.028721 532.814270,8.325278 
	C527.751221,7.141587 522.204468,7.826458 516.872864,8.030126 
	C501.857269,8.603719 486.842010,9.230165 471.838928,10.058769 
	C466.979736,10.327139 462.154510,11.256737 457.321259,11.937140 
	C452.818451,12.571026 448.271118,14.092310 443.838593,13.796381 
	C430.464355,12.903469 417.161011,10.666110 403.784393,10.161440 
	C386.310211,9.502176 368.792175,9.949471 351.293518,10.033420 
	C346.572327,10.056069 341.853027,10.486620 336.907379,10.741561 
	C337.105225,12.934438 337.239685,14.424552 337.369446,15.862666 
	C333.356293,14.194093 329.633270,11.767950 325.636017,11.167590 
	C317.394684,9.929792 309.017151,9.465005 300.677368,9.045108 
	C284.505829,8.230896 268.325836,7.511580 252.140640,7.080255 
	C246.064316,6.918324 239.964294,7.927873 233.874100,7.940551 
	C224.018982,7.961067 214.036713,6.999895 205.507584,15.067020 
	C203.082413,7.585348 197.514664,8.961957 192.556076,9.023130 
	C169.800034,9.303872 147.045883,9.846642 124.289421,9.957565 
	C90.625412,10.121655 56.959782,9.939790 23.295410,10.061625 
	C17.936014,10.081020 12.579576,10.918294 6.999986,11.396455 
	C6.999986,22.397110 7.055108,33.207333 6.972755,44.016506 
	C6.939981,48.318195 6.772250,52.520023 9.922174,56.087635 
	C10.523475,56.768677 10.442808,58.409378 10.153143,59.463417 
	C7.660144,68.534973 6.462822,77.712891 6.960200,87.148193 
	C7.473987,96.894768 7.668057,106.658218 7.997838,116.414421 
	C8.025978,117.246933 8.031334,118.080475 8.032735,118.913567 
	C8.038356,122.256325 8.005347,125.599503 8.047215,128.941757 
	C8.130426,135.584381 7.056260,142.530258 8.645870,148.796387 
	C10.932698,157.810913 15.411076,166.038727 15.433159,175.933777 
	C15.444277,180.915405 15.147451,184.804626 12.614323,189.101166 
	C9.045140,195.154999 4.244921,201.021927 5.977186,208.966187 
	C6.461892,211.189072 6.945033,213.471695 6.955670,215.729141 
	C7.036555,232.894485 7.707504,250.102798 6.682132,267.207062 
	C6.214840,275.001953 7.536361,281.846649 9.878643,288.939636 
	C10.843946,291.862823 11.341671,295.097809 11.279546,298.175385 
	C11.026213,310.724976 9.276212,323.374756 10.377057,335.783661 
	C11.426282,347.610657 11.543946,359.027985 9.293214,370.671539 
	C8.298731,375.816223 8.800532,381.308685 9.069676,386.620636 
	C9.289221,390.953735 10.804360,395.283051 10.601826,399.559906 
	C10.350797,404.860718 8.678285,410.077911 8.070231,415.382874 
	C7.502398,420.336914 7.526474,425.358582 7.285503,430.350281 
	C6.863878,439.084198 5.961441,447.831177 6.202525,456.546600 
	C6.337122,461.412415 8.938243,466.170929 9.410623,471.075775 
	C10.092594,478.156860 10.713589,485.444916 9.758928,492.425629 
	C8.814715,499.330017 8.555466,505.623322 12.277773,511.715332 
	C14.367218,515.135010 16.290234,518.656433 17.481983,520.729492 
	C13.323092,528.509583 9.736810,535.218445 6.029684,542.153381 
	C8.799963,543.341492 10.468060,544.056885 13.053267,545.165649 
	C10.977894,546.958191 9.248836,548.075012 8.036914,549.602234 
	C6.778267,551.188293 5.133414,553.205872 5.202243,554.974609 
	C5.448997,561.315674 6.147643,567.660767 7.065696,573.947327 
	C7.831944,579.194336 7.830060,585.232849 10.552335,589.341187 
	C13.872126,594.351135 13.442474,598.188660 11.573010,603.039673 
	C10.312599,606.310242 9.840054,609.883118 8.994534,613.315674 
	C8.686851,614.564697 8.654934,616.604248 7.924730,616.908264 
	C3.517138,618.743591 5.092268,622.435486 5.047355,625.483154 
	C4.914758,634.480713 4.999986,643.481506 4.999986,652.481018 
	C4.999986,656.915039 4.999986,661.349060 4.999986,666.000000 
	C190.898026,666.000000 376.199005,666.000000 562.500000,666.000000 
z"/>
<path fill="#39271B" opacity="1.000000" stroke="none" 
	d="
M562.000000,666.000000 
	C376.199005,666.000000 190.898026,666.000000 4.999986,666.000000 
	C4.999986,661.349060 4.999986,656.915039 4.999986,652.481018 
	C4.999986,643.481506 4.914758,634.480713 5.047355,625.483154 
	C5.092268,622.435486 3.517138,618.743591 7.924730,616.908264 
	C8.654934,616.604248 8.686851,614.564697 8.994534,613.315674 
	C9.840054,609.883118 10.312599,606.310242 11.573010,603.039673 
	C13.442474,598.188660 13.872126,594.351135 10.552335,589.341187 
	C7.830060,585.232849 7.831944,579.194336 7.065696,573.947327 
	C6.147643,567.660767 5.448997,561.315674 5.202243,554.974609 
	C5.133414,553.205872 6.778267,551.188293 8.036914,549.602234 
	C9.248836,548.075012 10.977894,546.958191 13.053267,545.165649 
	C10.468060,544.056885 8.799963,543.341492 6.029684,542.153381 
	C9.736810,535.218445 13.323092,528.509583 17.481983,520.729492 
	C16.290234,518.656433 14.367218,515.135010 12.277773,511.715332 
	C8.555466,505.623322 8.814715,499.330017 9.758928,492.425629 
	C10.713589,485.444916 10.092594,478.156860 9.410623,471.075775 
	C8.938243,466.170929 6.337122,461.412415 6.202525,456.546600 
	C5.961441,447.831177 6.863878,439.084198 7.285503,430.350281 
	C7.526474,425.358582 7.502398,420.336914 8.070231,415.382874 
	C8.678285,410.077911 10.350797,404.860718 10.601826,399.559906 
	C10.804360,395.283051 9.289221,390.953735 9.069676,386.620636 
	C8.800532,381.308685 8.298731,375.816223 9.293214,370.671539 
	C11.543946,359.027985 11.426282,347.610657 10.377057,335.783661 
	C9.276212,323.374756 11.026213,310.724976 11.279546,298.175385 
	C11.341671,295.097809 10.843946,291.862823 9.878643,288.939636 
	C7.536361,281.846649 6.214840,275.001953 6.682132,267.207062 
	C7.707504,250.102798 7.036555,232.894485 6.955670,215.729141 
	C6.945033,213.471695 6.461892,211.189072 5.977186,208.966187 
	C4.244921,201.021927 9.045140,195.154999 12.614323,189.101166 
	C15.147451,184.804626 15.444277,180.915405 15.433159,175.933777 
	C15.411076,166.038727 10.932698,157.810913 8.645870,148.796387 
	C7.056260,142.530258 8.130426,135.584381 8.047215,128.941757 
	C8.005347,125.599503 8.038356,122.256325 8.032735,118.913567 
	C8.031334,118.080475 8.025978,117.246933 7.997838,116.414421 
	C7.668057,106.658218 7.473987,96.894768 6.960200,87.148193 
	C6.462822,77.712891 7.660144,68.534973 10.153143,59.463417 
	C10.442808,58.409378 10.523475,56.768677 9.922174,56.087635 
	C6.772250,52.520023 6.939981,48.318195 6.972755,44.016506 
	C7.055108,33.207333 6.999986,22.397110 6.999986,11.396455 
	C12.579576,10.918294 17.936014,10.081020 23.295410,10.061625 
	C56.959782,9.939790 90.625412,10.121655 124.289421,9.957565 
	C147.045883,9.846642 169.800034,9.303872 192.556076,9.023130 
	C197.514664,8.961957 203.082413,7.585348 205.507584,15.067020 
	C214.036713,6.999895 224.018982,7.961067 233.874100,7.940551 
	C239.964294,7.927873 246.064316,6.918324 252.140640,7.080255 
	C268.325836,7.511580 284.505829,8.230896 300.677368,9.045108 
	C309.017151,9.465005 317.394684,9.929792 325.636017,11.167590 
	C329.633270,11.767950 333.356293,14.194093 337.369446,15.862666 
	C337.239685,14.424552 337.105225,12.934438 336.907379,10.741561 
	C341.853027,10.486620 346.572327,10.056069 351.293518,10.033420 
	C368.792175,9.949471 386.310211,9.502176 403.784393,10.161440 
	C417.161011,10.666110 430.464355,12.903469 443.838593,13.796381 
	C448.271118,14.092310 452.818451,12.571026 457.321259,11.937140 
	C462.154510,11.256737 466.979736,10.327139 471.838928,10.058769 
	C486.842010,9.230165 501.857269,8.603719 516.872864,8.030126 
	C522.204468,7.826458 527.751221,7.141587 532.814270,8.325278 
	C535.823120,9.028721 538.080811,12.945153 541.180359,15.897173 
	C550.059570,7.675554 562.408447,9.497001 573.598572,7.279519 
	C578.444153,6.319302 583.865906,8.494641 589.051514,8.961416 
	C594.783813,9.477403 600.542297,9.861804 606.295044,9.956469 
	C615.958557,10.115487 625.633789,9.772953 635.290283,10.078123 
	C641.961609,10.288957 648.067505,12.326595 655.328735,9.531299 
	C661.860413,7.016835 670.131104,8.823006 677.618347,9.127046 
	C679.466431,9.202092 681.250916,10.844745 683.551025,12.014021 
	C688.107666,4.945527 695.038147,7.475340 701.924438,7.840763 
	C713.059204,8.431625 724.249817,7.876018 735.413757,8.029878 
	C751.004517,8.244746 766.591370,8.732331 782.181763,8.985196 
	C806.269470,9.375880 830.358582,9.695243 854.448242,9.914885 
	C855.641968,9.925768 856.822144,8.647099 858.054871,8.067157 
	C858.984131,7.630002 859.984314,7.057046 860.958252,7.046708 
	C868.770020,6.963787 876.583069,7.000334 884.696899,7.000334 
	C884.696899,226.618790 884.696899,446.011169 884.696899,666.000000 
	C777.342957,666.000000 669.921448,666.000000 562.000000,666.000000 
z"/>
</svg>